<svg width="328" height="64" viewBox="0 0 328 64" fill="none" xmlns="http://www.w3.org/2000/svg">
<rect x="0.5" y="0.5" width="327" height="63" rx="7.5" fill="#FAFAFA"/>
<rect x="0.5" y="0.5" width="327" height="63" rx="7.5" stroke="#E9EAEB"/>
<path d="M25.9787 12.0861C26.9677 12.0005 27.9581 11.9662 28.9484 12.0418C31.2669 12.2202 33.4585 12.7968 35.4108 14.1156C37.1108 15.263 38.389 16.7844 39.3423 18.594C39.8055 19.4732 40.1503 20.4023 40.5108 21.3243C41.2761 23.2767 42.1881 25.162 43.1157 27.0402C43.5275 27.8737 44.1289 28.573 44.7302 29.2709C45.5311 30.2 46.4388 31.022 47.3109 31.8783C48.7202 33.2613 49.8146 34.8569 50.4587 36.7379C51.1527 38.7645 51.184 40.8011 50.5257 42.8434C49.9614 44.5945 48.9383 46.0574 47.7042 47.3918C46.4089 48.7905 44.9126 49.9122 43.1713 50.6901C41.8589 51.2766 40.4809 51.642 39.0559 51.8275C37.9232 51.9745 36.7873 52.0316 35.6473 51.9831C34.7211 51.9474 33.7991 51.8632 32.8843 51.7205C29.024 51.1211 25.5384 49.6582 22.4861 47.1977C20.397 45.5137 18.6985 43.4913 17.2849 41.2178C15.924 39.03 14.8652 36.7008 14.0615 34.256C13.6212 32.9173 13.3234 31.5429 13.1567 30.14C12.99 28.73 12.9458 27.3213 13.0754 25.907C13.3106 23.3509 14.0145 20.9347 15.334 18.7326C17.1965 15.6227 19.8142 13.4477 23.3639 12.5015C24.2203 12.2731 25.0967 12.1632 25.9787 12.0861ZM28.2416 13.1965C27.3083 13.1637 26.3792 13.2364 25.4515 13.3292C24.1462 13.4605 22.8965 13.7945 21.7123 14.3497C19.971 15.1661 18.5289 16.3634 17.349 17.8777C15.4153 20.3595 14.4791 23.2182 14.2312 26.3223C14.1414 27.4369 14.1741 28.5544 14.2938 29.669C14.4463 31.092 14.7313 32.4863 15.1716 33.8436C15.8314 35.8759 16.6878 37.8226 17.7451 39.6808C19.0789 42.0228 20.7219 44.1136 22.7668 45.879C25.2292 48.007 28.0578 49.4199 31.2127 50.1834C32.8615 50.5816 34.5373 50.7971 36.2359 50.8071L36.2387 50.8085C36.8073 50.79 37.3773 50.8057 37.9458 50.7614C39.6088 50.6301 41.2219 50.279 42.7395 49.5811C45.3045 48.4023 47.2496 46.527 48.686 44.1093C49.5524 42.6493 49.8787 41.0508 49.8004 39.3739C49.7405 38.0951 49.3572 36.892 48.7644 35.756C48.0704 34.4273 47.1285 33.2955 46.0355 32.2851C45.2404 31.5501 44.478 30.7837 43.7627 29.973C42.9191 29.0168 42.2194 27.9678 41.6738 26.8033C40.9456 25.2505 40.2087 23.7034 39.5575 22.1164C39.0459 20.8719 38.617 19.5931 37.8988 18.4399C36.7403 16.5803 35.2255 15.136 33.2049 14.2498C31.6217 13.5547 29.9573 13.2565 28.2416 13.1965Z" fill="black"/>
<path d="M23.8669 18.8095C25.4444 17.8662 27.1487 17.4438 28.9684 17.7606C31.2298 18.156 32.8686 19.419 33.8062 21.5355C34.2295 22.4903 34.3021 23.505 34.2266 24.5397C34.1767 25.2305 34.0756 25.907 33.8604 26.5678C33.7578 26.8846 33.6167 27.1843 33.4828 27.4883C33.4642 27.5311 33.4272 27.5668 33.44 27.6367L33.4372 27.6382C33.5526 27.6139 33.6181 27.5311 33.6979 27.4726C34.1326 27.1529 34.6042 26.9388 35.1543 26.9203C35.6716 26.9032 36.1247 27.0573 36.5052 27.4098C37.3915 28.2319 37.7891 29.228 37.5597 30.4397C37.5283 30.6039 37.4713 30.7651 37.3773 30.9007C37.2889 31.0277 37.3217 31.1048 37.4143 31.2031C37.6751 31.4829 37.9074 31.7856 38.047 32.1438C38.4004 33.0529 38.2551 33.8664 37.5739 34.5757C37.4257 34.7284 37.4286 34.727 37.6167 34.8312C38.1097 35.1052 38.6056 35.3721 39.1143 35.6147C39.254 35.6818 39.3381 35.6689 39.4193 35.5291C39.5518 35.3036 39.7057 35.0923 39.8439 34.8711C40.3812 34.0177 41.1906 33.7379 42.1482 33.7736C42.6241 33.7922 42.9989 34.002 43.2725 34.3959C43.4249 34.6157 43.5104 34.864 43.5375 35.1252C43.5931 35.6861 43.5375 36.2398 43.3736 36.7807C43.3551 36.8407 43.301 36.912 43.4192 36.9491C44.2785 37.2189 44.5407 37.8896 44.5651 38.7016C44.5922 39.6521 44.1232 40.3487 43.4022 40.9124C42.6113 41.529 41.8133 42.1398 41.0438 42.7834C40.4382 43.2901 39.7713 43.3258 39.0687 43.1188C38.446 42.9362 37.953 42.5735 37.6936 41.9484C37.6038 41.7316 37.44 41.5759 37.2405 41.4604C36.8629 41.2421 36.4539 41.1021 36.0364 40.9851C35.9252 40.9538 35.8996 40.998 35.8825 41.1065C35.5405 43.283 34.4788 44.9785 32.5366 46.0703C31.8654 46.447 31.1287 46.6269 30.362 46.5683C29.5555 46.5055 28.8017 46.2344 28.0991 45.8248C26.9919 45.1797 26.1227 44.2749 25.3418 43.2773C24.3785 42.0456 23.6418 40.6769 22.9449 39.284C22.3707 38.1365 21.9175 36.9491 21.6639 35.6903C21.3931 34.3531 21.3347 33.003 21.4886 31.6471C21.5613 31.0049 21.6553 30.3641 21.7465 29.7233C21.7679 29.572 21.8106 29.4221 21.8562 29.2737C22.0842 28.533 22.0728 27.8166 21.7679 27.0844C21.4088 26.2195 21.2321 25.3047 21.1651 24.3671C21.101 23.4751 21.205 22.6102 21.4843 21.7682C21.909 20.4865 22.7127 19.5004 23.8669 18.8095ZM28.3971 18.8852C27.0875 18.7825 25.8747 19.0579 24.7347 19.6802C23.3767 20.4209 22.5744 21.5585 22.3792 23.104C22.2196 24.3713 22.4193 25.5944 22.9095 26.7633C23.2244 27.5154 23.2856 28.2804 23.1346 29.0668C23.042 29.5435 22.8824 30.0044 22.8254 30.4911C22.7242 31.346 22.5602 32.1952 22.5858 32.9359L22.5888 32.933C22.5846 33.8207 22.6487 34.5771 22.7969 35.3264C23.0149 36.4282 23.391 37.4743 23.8755 38.4848C24.692 40.1888 25.6068 41.8272 26.8679 43.2501C27.4949 43.958 28.1976 44.5717 29.0567 44.9884C30.2124 45.5493 31.3354 45.5279 32.4055 44.7758C32.87 44.449 33.2492 44.0294 33.6154 43.5984C33.9788 43.1716 34.2453 42.6992 34.3978 42.1555C34.5773 41.5147 34.7496 40.8737 34.8593 40.2174C34.9291 39.8021 35.2043 39.5965 35.606 39.6679C36.3983 39.8092 37.1608 40.0504 37.8618 40.4543C38.2437 40.6741 38.57 40.9666 38.7367 41.3862C38.9134 41.8258 39.2584 41.9914 39.6888 42.0499C39.891 42.077 40.0692 42.0456 40.2372 41.91C40.746 41.5004 41.2661 41.1037 41.7762 40.6969C42.1752 40.3786 42.5858 40.0747 42.9548 39.7193C43.3665 39.3241 43.4606 38.8501 43.3054 38.3164C43.247 38.1137 43.1827 38.081 42.9761 38.1251C42.7439 38.1751 42.5543 38.3092 42.3747 38.4577C41.8717 38.8743 41.3715 39.294 40.8685 39.7107C40.7859 39.7778 40.7005 39.8449 40.6093 39.8977C40.3357 40.0575 40.0507 39.999 39.8484 39.7493C39.6631 39.5223 39.6702 39.2567 39.8783 39.0227C39.9752 38.9129 40.0878 38.8143 40.2016 38.7188C40.6704 38.3263 41.1364 37.931 41.6166 37.5514C41.8788 37.3444 42.0555 37.0904 42.1553 36.7764C42.3177 36.2626 42.4175 35.7417 42.3462 35.1994C42.322 35.0169 42.2094 34.9425 42.04 34.9468C41.5313 34.9596 41.0865 35.0866 40.8015 35.5676C40.6049 35.8986 40.3968 36.227 40.1533 36.5267C39.8256 36.9291 39.5447 37.0076 39.0546 36.8449C38.677 36.7193 38.3179 36.5479 37.9659 36.364C37.1095 35.9158 36.2872 35.4063 35.4865 34.8626C34.9906 34.5258 34.4404 34.4701 33.8648 34.5671C33.6311 34.6071 33.4571 34.7327 33.326 34.9368C32.7589 35.8202 32.1833 36.6994 31.609 37.5799C31.5349 37.6941 31.4578 37.8097 31.3666 37.9096C31.1429 38.1537 30.8494 38.1794 30.6014 37.9895C30.3293 37.7826 30.2666 37.49 30.4418 37.2074C30.6328 36.9006 30.8365 36.6009 31.0303 36.294C31.8982 34.9198 32.8914 33.6224 33.601 32.1509C33.8233 31.6885 34.1653 31.3645 34.627 31.159C35.1087 30.9449 35.5903 30.728 36.0763 30.5239C36.3513 30.4098 36.4554 30.2057 36.4583 29.9231C36.4654 29.2323 36.1675 28.6884 35.6559 28.2474C35.4849 28.1006 35.2797 28.0622 35.0704 28.1234C34.2652 28.3617 33.6994 28.8684 33.4457 29.6762C33.3289 30.0473 33.1721 30.3841 32.9341 30.6852C32.3998 31.3644 31.73 31.8955 31.0346 32.3964C30.9235 32.4763 30.9406 32.5177 31.0175 32.5933C31.1885 32.7589 31.3582 32.9259 31.4822 33.1314C31.6374 33.3883 31.6003 33.6323 31.3795 33.8393C31.1486 34.0548 30.9007 34.0762 30.6542 33.9007C30.5275 33.8107 30.4262 33.6951 30.3208 33.581C29.5257 32.7204 28.7176 31.874 27.6789 31.296C27.6276 31.2675 27.5804 31.229 27.5364 31.189C27.3013 30.9735 27.2514 30.6909 27.4039 30.4526C27.5763 30.1843 27.8684 30.0929 28.1618 30.2214C28.2644 30.267 28.3629 30.3213 28.4612 30.3769C28.9028 30.6253 29.2892 30.9521 29.6739 31.2789C29.7635 31.3546 29.8234 31.3645 29.906 31.2661C30.4019 30.6752 30.9677 30.1614 31.6046 29.7276C32.0107 29.4521 32.1703 29.0825 32.0905 28.5929C32.0164 28.1448 32.0492 27.7081 32.2687 27.2928C32.9213 26.0611 33.1279 24.7394 33.0424 23.3593C33.031 23.1882 33.0097 23.0184 32.9755 22.8485C32.5608 20.8164 30.6613 19.0636 28.3971 18.8852ZM36.3001 31.7913C36.2531 31.7513 36.1989 31.7627 36.1491 31.7856C35.7686 31.961 35.3666 32.091 35.0004 32.3008C34.9079 32.355 34.8139 32.4078 34.7597 32.5049C34.6329 32.7316 34.5103 32.963 34.3807 33.1885C34.318 33.2984 34.3549 33.3326 34.466 33.3426C34.6313 33.3583 34.7966 33.3726 34.9605 33.3983C35.425 33.4725 35.8369 33.6752 36.2316 33.9221C36.2886 33.9577 36.3386 34.0134 36.4241 33.9763C36.7432 33.8393 37.0595 33.3782 37.0566 33.0158C37.021 32.4977 36.7004 32.1194 36.3001 31.7913Z" fill="black"/>
<path d="M70.6719 19.9929C70.6188 19.5223 70.4001 19.1577 70.0156 18.8991C69.6312 18.6373 69.1473 18.5064 68.5639 18.5064C68.1463 18.5064 67.785 18.5727 67.4801 18.7053C67.1752 18.8345 66.9382 19.0135 66.7692 19.2422C66.6035 19.4676 66.5206 19.7244 66.5206 20.0128C66.5206 20.2547 66.5769 20.4635 66.6896 20.6392C66.8056 20.8149 66.9564 20.9624 67.142 21.0817C67.331 21.1977 67.5331 21.2955 67.7486 21.375C67.964 21.4512 68.1712 21.5142 68.37 21.5639L69.3643 21.8224C69.6892 21.902 70.0223 22.0097 70.3636 22.1456C70.705 22.2815 71.0215 22.4605 71.3132 22.6825C71.6049 22.9046 71.8402 23.1797 72.0192 23.5078C72.2015 23.8359 72.2926 24.2287 72.2926 24.6861C72.2926 25.2628 72.1435 25.7749 71.8452 26.2223C71.5502 26.6697 71.121 27.0227 70.5575 27.2812C69.9974 27.5398 69.3196 27.669 68.5241 27.669C67.7618 27.669 67.1023 27.5481 66.5455 27.3061C65.9886 27.0642 65.5528 26.7211 65.2379 26.277C64.9231 25.8295 64.7491 25.2992 64.7159 24.6861H66.2571C66.2869 25.054 66.4063 25.3606 66.6151 25.6058C66.8272 25.8478 67.0973 26.0284 67.4254 26.1477C67.7569 26.2637 68.1198 26.3217 68.5142 26.3217C68.9484 26.3217 69.3345 26.2538 69.6726 26.1179C70.014 25.9787 70.2824 25.7865 70.478 25.5412C70.6735 25.2926 70.7713 25.0026 70.7713 24.6712C70.7713 24.3696 70.6851 24.1226 70.5128 23.9304C70.3438 23.7382 70.1134 23.5791 69.8217 23.4531C69.5334 23.3272 69.2069 23.2161 68.8423 23.12L67.6392 22.7919C66.8239 22.5698 66.1776 22.2434 65.7003 21.8125C65.2263 21.3816 64.9893 20.8116 64.9893 20.1023C64.9893 19.5156 65.1484 19.0036 65.4666 18.5661C65.7848 18.1286 66.2157 17.7888 66.7592 17.5469C67.3028 17.3016 67.916 17.179 68.5987 17.179C69.2881 17.179 69.8963 17.3 70.4233 17.5419C70.9536 17.7839 71.3712 18.117 71.6761 18.5412C71.9811 18.9621 72.1402 19.446 72.1534 19.9929H70.6719ZM76.2314 27.669C75.7475 27.669 75.31 27.5795 74.9189 27.4006C74.5278 27.2183 74.2179 26.9548 73.9892 26.6101C73.7638 26.2654 73.6511 25.8428 73.6511 25.3423C73.6511 24.9115 73.734 24.5568 73.8997 24.2784C74.0654 24 74.2891 23.7796 74.5708 23.6172C74.8526 23.4548 75.1674 23.3321 75.5154 23.2493C75.8635 23.1664 76.2181 23.1035 76.5794 23.0604C77.0368 23.0073 77.408 22.9643 77.693 22.9311C77.978 22.8946 78.1852 22.8366 78.3145 22.7571C78.4437 22.6776 78.5083 22.5483 78.5083 22.3693V22.3345C78.5083 21.9003 78.3857 21.5639 78.1404 21.3253C77.8985 21.0866 77.5372 20.9673 77.0566 20.9673C76.5562 20.9673 76.1618 21.0784 75.8734 21.3004C75.5884 21.5192 75.3912 21.7628 75.2818 22.0312L73.8848 21.7131C74.0505 21.2491 74.2924 20.8745 74.6106 20.5895C74.9321 20.3011 75.3017 20.0923 75.7193 19.9631C76.1369 19.8305 76.5761 19.7642 77.0368 19.7642C77.3417 19.7642 77.6648 19.8007 78.0062 19.8736C78.3509 19.9432 78.6724 20.0724 78.9707 20.2614C79.2723 20.4503 79.5192 20.7204 79.7115 21.0717C79.9037 21.4197 79.9998 21.8722 79.9998 22.429V27.5H78.5481V26.456H78.4885C78.3923 26.6482 78.2482 26.8371 78.0559 27.0227C77.8637 27.2083 77.6168 27.3625 77.3152 27.4851C77.0136 27.6077 76.6523 27.669 76.2314 27.669ZM76.5545 26.4759C76.9655 26.4759 77.3168 26.3946 77.6085 26.2322C77.9035 26.0698 78.1272 25.8577 78.2797 25.5959C78.4354 25.3307 78.5133 25.0473 78.5133 24.7457V23.7614C78.4603 23.8144 78.3575 23.8641 78.2051 23.9105C78.0559 23.9536 77.8852 23.9917 77.693 24.0249C77.5008 24.0547 77.3135 24.0829 77.1312 24.1094C76.9489 24.1326 76.7965 24.1525 76.6738 24.169C76.3855 24.2055 76.122 24.2668 75.8833 24.353C75.648 24.4392 75.4591 24.5634 75.3166 24.7259C75.1774 24.8849 75.1078 25.0971 75.1078 25.3622C75.1078 25.7301 75.2437 26.0085 75.5154 26.1974C75.7872 26.383 76.1336 26.4759 76.5545 26.4759ZM85.1964 27.6541C84.4573 27.6541 83.8209 27.4867 83.2873 27.152C82.757 26.8139 82.3493 26.3482 82.0643 25.755C81.7792 25.1617 81.6367 24.4822 81.6367 23.7166C81.6367 22.9411 81.7826 22.2566 82.0742 21.6634C82.3659 21.0668 82.7769 20.6011 83.3072 20.2663C83.8375 19.9316 84.4622 19.7642 85.1815 19.7642C85.7615 19.7642 86.2785 19.8719 86.7326 20.0874C87.1867 20.2995 87.5529 20.5978 87.8313 20.9822C88.113 21.3667 88.2804 21.8158 88.3335 22.3295H86.8867C86.8072 21.9716 86.6249 21.6634 86.3398 21.4048C86.0581 21.1463 85.6803 21.017 85.2063 21.017C84.792 21.017 84.4291 21.1264 84.1175 21.3452C83.8093 21.5606 83.569 21.8688 83.3967 22.2699C83.2243 22.6676 83.1381 23.1383 83.1381 23.6818C83.1381 24.2386 83.2227 24.7192 83.3917 25.1236C83.5607 25.5279 83.7994 25.8411 84.1076 26.0632C84.4192 26.2853 84.7854 26.3963 85.2063 26.3963C85.488 26.3963 85.7433 26.3449 85.9719 26.2422C86.204 26.1361 86.3978 25.9853 86.5536 25.7898C86.7127 25.5942 86.8237 25.3589 86.8867 25.0838H88.3335C88.2804 25.5777 88.1197 26.0185 87.8512 26.4062C87.5827 26.794 87.2231 27.099 86.7724 27.321C86.3249 27.5431 85.7996 27.6541 85.1964 27.6541ZM93.1397 27.6541C92.4238 27.6541 91.7991 27.4901 91.2654 27.1619C90.7318 26.8338 90.3175 26.3748 90.0225 25.7848C89.7276 25.1948 89.5801 24.5054 89.5801 23.7166C89.5801 22.9245 89.7276 22.2318 90.0225 21.6385C90.3175 21.0452 90.7318 20.5845 91.2654 20.2564C91.7991 19.9283 92.4238 19.7642 93.1397 19.7642C93.8556 19.7642 94.4804 19.9283 95.014 20.2564C95.5476 20.5845 95.9619 21.0452 96.2569 21.6385C96.5519 22.2318 96.6994 22.9245 96.6994 23.7166C96.6994 24.5054 96.5519 25.1948 96.2569 25.7848C95.9619 26.3748 95.5476 26.8338 95.014 27.1619C94.4804 27.4901 93.8556 27.6541 93.1397 27.6541ZM93.1447 26.4062C93.6087 26.4062 93.9932 26.2836 94.2981 26.0384C94.603 25.7931 94.8284 25.4666 94.9743 25.0589C95.1234 24.6513 95.198 24.2022 95.198 23.7116C95.198 23.2244 95.1234 22.777 94.9743 22.3693C94.8284 21.9583 94.603 21.6286 94.2981 21.38C93.9932 21.1314 93.6087 21.0071 93.1447 21.0071C92.6774 21.0071 92.2896 21.1314 91.9814 21.38C91.6764 21.6286 91.4494 21.9583 91.3002 22.3693C91.1544 22.777 91.0815 23.2244 91.0815 23.7116C91.0815 24.2022 91.1544 24.6513 91.3002 25.0589C91.4494 25.4666 91.6764 25.7931 91.9814 26.0384C92.2896 26.2836 92.6774 26.4062 93.1447 26.4062ZM109.074 20.5348C108.978 20.2332 108.848 19.9631 108.686 19.7244C108.527 19.4825 108.336 19.277 108.114 19.108C107.892 18.9356 107.639 18.8047 107.354 18.7152C107.072 18.6257 106.762 18.581 106.424 18.581C105.85 18.581 105.333 18.7285 104.873 19.0234C104.412 19.3184 104.047 19.7509 103.779 20.321C103.514 20.8878 103.381 21.5821 103.381 22.4041C103.381 23.2294 103.515 23.9271 103.784 24.4972C104.052 25.0672 104.42 25.4998 104.888 25.7947C105.355 26.0897 105.887 26.2372 106.483 26.2372C107.037 26.2372 107.519 26.1245 107.93 25.8991C108.345 25.6738 108.664 25.3556 108.89 24.9446C109.118 24.5303 109.233 24.0431 109.233 23.483L109.631 23.5575H106.717V22.2898H110.719V23.4482C110.719 24.3033 110.537 25.0457 110.172 25.6754C109.811 26.3018 109.311 26.7857 108.671 27.1271C108.035 27.4685 107.305 27.6392 106.483 27.6392C105.562 27.6392 104.753 27.4271 104.057 27.0028C103.365 26.5786 102.824 25.977 102.437 25.1982C102.049 24.416 101.855 23.4879 101.855 22.4141C101.855 21.602 101.968 20.8729 102.193 20.2266C102.418 19.5803 102.735 19.0317 103.143 18.581C103.554 18.1269 104.036 17.7805 104.589 17.5419C105.146 17.3 105.754 17.179 106.414 17.179C106.964 17.179 107.476 17.2602 107.95 17.4226C108.427 17.585 108.852 17.8153 109.223 18.1136C109.597 18.4119 109.907 18.7666 110.153 19.1776C110.398 19.5852 110.564 20.0376 110.65 20.5348H109.074ZM115.841 27.6541C115.089 27.6541 114.441 27.4934 113.897 27.1719C113.357 26.8471 112.94 26.3913 112.645 25.8047C112.353 25.2147 112.207 24.5237 112.207 23.7315C112.207 22.9493 112.353 22.2599 112.645 21.6634C112.94 21.0668 113.35 20.6011 113.877 20.2663C114.408 19.9316 115.028 19.7642 115.737 19.7642C116.168 19.7642 116.585 19.8355 116.99 19.978C117.394 20.1205 117.757 20.3442 118.078 20.6491C118.4 20.9541 118.654 21.3501 118.839 21.8374C119.025 22.3213 119.118 22.9096 119.118 23.6023V24.1293H113.047V23.0156H117.661C117.661 22.6245 117.581 22.2782 117.422 21.9766C117.263 21.6716 117.039 21.4313 116.751 21.2557C116.466 21.08 116.131 20.9922 115.747 20.9922C115.329 20.9922 114.965 21.0949 114.653 21.3004C114.345 21.5026 114.106 21.7678 113.937 22.0959C113.771 22.4207 113.689 22.7737 113.689 23.1548V24.0249C113.689 24.5353 113.778 24.9695 113.957 25.3274C114.139 25.6854 114.393 25.9588 114.718 26.1477C115.042 26.3333 115.422 26.4261 115.856 26.4261C116.138 26.4261 116.395 26.3864 116.627 26.3068C116.859 26.224 117.059 26.1013 117.228 25.9389C117.397 25.7765 117.527 25.576 117.616 25.3374L119.023 25.5909C118.91 26.0052 118.708 26.3681 118.417 26.6797C118.128 26.9879 117.765 27.2282 117.328 27.4006C116.894 27.5696 116.398 27.6541 115.841 27.6541ZM126.489 21.728L125.142 21.9666C125.086 21.7943 124.996 21.6302 124.873 21.4744C124.754 21.3187 124.592 21.1911 124.386 21.0916C124.181 20.9922 123.924 20.9425 123.616 20.9425C123.195 20.9425 122.843 21.0369 122.562 21.2259C122.28 21.4115 122.139 21.6518 122.139 21.9467C122.139 22.2019 122.233 22.4074 122.422 22.5632C122.611 22.719 122.916 22.8466 123.337 22.946L124.55 23.2244C125.253 23.3868 125.777 23.6371 126.121 23.9751C126.466 24.3132 126.638 24.7524 126.638 25.2926C126.638 25.75 126.506 26.1577 126.241 26.5156C125.979 26.8703 125.613 27.1487 125.142 27.3509C124.675 27.553 124.133 27.6541 123.516 27.6541C122.661 27.6541 121.963 27.4718 121.423 27.1072C120.883 26.7393 120.551 26.2173 120.429 25.5412L121.866 25.3224C121.955 25.697 122.139 25.9804 122.417 26.1726C122.696 26.3615 123.059 26.456 123.506 26.456C123.993 26.456 124.383 26.3549 124.675 26.1527C124.966 25.9472 125.112 25.697 125.112 25.402C125.112 25.1634 125.023 24.9628 124.844 24.8004C124.668 24.638 124.398 24.5154 124.033 24.4325L122.741 24.1491C122.028 23.9867 121.501 23.7282 121.16 23.3736C120.822 23.0189 120.653 22.5698 120.653 22.0263C120.653 21.5755 120.778 21.1811 121.03 20.843C121.282 20.505 121.63 20.2415 122.074 20.0526C122.519 19.8603 123.027 19.7642 123.601 19.7642C124.426 19.7642 125.076 19.9432 125.55 20.3011C126.023 20.6558 126.337 21.1314 126.489 21.728ZM131.837 19.8636V21.0568H127.666V19.8636H131.837ZM128.785 18.0341H130.271V25.2578C130.271 25.5462 130.314 25.7633 130.401 25.9091C130.487 26.0516 130.598 26.1494 130.734 26.2024C130.873 26.2521 131.024 26.277 131.186 26.277C131.305 26.277 131.41 26.2687 131.499 26.2521C131.589 26.2356 131.658 26.2223 131.708 26.2124L131.977 27.4403C131.89 27.4735 131.768 27.5066 131.609 27.5398C131.45 27.5762 131.251 27.5961 131.012 27.5994C130.621 27.6061 130.256 27.5365 129.918 27.3906C129.58 27.2448 129.307 27.0194 129.098 26.7145C128.889 26.4096 128.785 26.0268 128.785 25.5661V18.0341ZM135.704 27.669C135.22 27.669 134.783 27.5795 134.392 27.4006C134 27.2183 133.691 26.9548 133.462 26.6101C133.236 26.2654 133.124 25.8428 133.124 25.3423C133.124 24.9115 133.207 24.5568 133.372 24.2784C133.538 24 133.762 23.7796 134.044 23.6172C134.325 23.4548 134.64 23.3321 134.988 23.2493C135.336 23.1664 135.691 23.1035 136.052 23.0604C136.509 23.0073 136.881 22.9643 137.166 22.9311C137.451 22.8946 137.658 22.8366 137.787 22.7571C137.916 22.6776 137.981 22.5483 137.981 22.3693V22.3345C137.981 21.9003 137.858 21.5639 137.613 21.3253C137.371 21.0866 137.01 20.9673 136.529 20.9673C136.029 20.9673 135.634 21.0784 135.346 21.3004C135.061 21.5192 134.864 21.7628 134.754 22.0312L133.357 21.7131C133.523 21.2491 133.765 20.8745 134.083 20.5895C134.405 20.3011 134.774 20.0923 135.192 19.9631C135.61 19.8305 136.049 19.7642 136.509 19.7642C136.814 19.7642 137.137 19.8007 137.479 19.8736C137.824 19.9432 138.145 20.0724 138.443 20.2614C138.745 20.4503 138.992 20.7204 139.184 21.0717C139.376 21.4197 139.472 21.8722 139.472 22.429V27.5H138.021V26.456H137.961C137.865 26.6482 137.721 26.8371 137.529 27.0227C137.336 27.2083 137.089 27.3625 136.788 27.4851C136.486 27.6077 136.125 27.669 135.704 27.669ZM136.027 26.4759C136.438 26.4759 136.789 26.3946 137.081 26.2322C137.376 26.0698 137.6 25.8577 137.752 25.5959C137.908 25.3307 137.986 25.0473 137.986 24.7457V23.7614C137.933 23.8144 137.83 23.8641 137.678 23.9105C137.529 23.9536 137.358 23.9917 137.166 24.0249C136.973 24.0547 136.786 24.0829 136.604 24.1094C136.422 24.1326 136.269 24.1525 136.146 24.169C135.858 24.2055 135.595 24.2668 135.356 24.353C135.121 24.4392 134.932 24.5634 134.789 24.7259C134.65 24.8849 134.58 25.0971 134.58 25.3622C134.58 25.7301 134.716 26.0085 134.988 26.1974C135.26 26.383 135.606 26.4759 136.027 26.4759ZM144.669 27.6541C143.93 27.6541 143.294 27.4867 142.76 27.152C142.23 26.8139 141.822 26.3482 141.537 25.755C141.252 25.1617 141.109 24.4822 141.109 23.7166C141.109 22.9411 141.255 22.2566 141.547 21.6634C141.839 21.0668 142.25 20.6011 142.78 20.2663C143.31 19.9316 143.935 19.7642 144.654 19.7642C145.234 19.7642 145.751 19.8719 146.205 20.0874C146.659 20.2995 147.026 20.5978 147.304 20.9822C147.586 21.3667 147.753 21.8158 147.806 22.3295H146.359C146.28 21.9716 146.098 21.6634 145.812 21.4048C145.531 21.1463 145.153 21.017 144.679 21.017C144.265 21.017 143.902 21.1264 143.59 21.3452C143.282 21.5606 143.042 21.8688 142.869 22.2699C142.697 22.6676 142.611 23.1383 142.611 23.6818C142.611 24.2386 142.695 24.7192 142.864 25.1236C143.033 25.5279 143.272 25.8411 143.58 26.0632C143.892 26.2853 144.258 26.3963 144.679 26.3963C144.961 26.3963 145.216 26.3449 145.445 26.2422C145.677 26.1361 145.871 25.9853 146.026 25.7898C146.185 25.5942 146.296 25.3589 146.359 25.0838H147.806C147.753 25.5777 147.592 26.0185 147.324 26.4062C147.055 26.794 146.696 27.099 146.245 27.321C145.798 27.5431 145.272 27.6541 144.669 27.6541ZM149.396 27.5V19.8636H150.882V27.5H149.396ZM150.146 18.6854C149.888 18.6854 149.666 18.5992 149.48 18.4268C149.298 18.2512 149.207 18.0424 149.207 17.8004C149.207 17.5552 149.298 17.3464 149.48 17.174C149.666 16.9983 149.888 16.9105 150.146 16.9105C150.405 16.9105 150.625 16.9983 150.808 17.174C150.993 17.3464 151.086 17.5552 151.086 17.8004C151.086 18.0424 150.993 18.2512 150.808 18.4268C150.625 18.5992 150.405 18.6854 150.146 18.6854ZM156.099 27.6541C155.383 27.6541 154.758 27.4901 154.224 27.1619C153.691 26.8338 153.277 26.3748 152.982 25.7848C152.687 25.1948 152.539 24.5054 152.539 23.7166C152.539 22.9245 152.687 22.2318 152.982 21.6385C153.277 21.0452 153.691 20.5845 154.224 20.2564C154.758 19.9283 155.383 19.7642 156.099 19.7642C156.815 19.7642 157.439 19.9283 157.973 20.2564C158.507 20.5845 158.921 21.0452 159.216 21.6385C159.511 22.2318 159.658 22.9245 159.658 23.7166C159.658 24.5054 159.511 25.1948 159.216 25.7848C158.921 26.3748 158.507 26.8338 157.973 27.1619C157.439 27.4901 156.815 27.6541 156.099 27.6541ZM156.104 26.4062C156.568 26.4062 156.952 26.2836 157.257 26.0384C157.562 25.7931 157.787 25.4666 157.933 25.0589C158.082 24.6513 158.157 24.2022 158.157 23.7116C158.157 23.2244 158.082 22.777 157.933 22.3693C157.787 21.9583 157.562 21.6286 157.257 21.38C156.952 21.1314 156.568 21.0071 156.104 21.0071C155.636 21.0071 155.249 21.1314 154.94 21.38C154.635 21.6286 154.408 21.9583 154.259 22.3693C154.113 22.777 154.04 23.2244 154.04 23.7116C154.04 24.2022 154.113 24.6513 154.259 25.0589C154.408 25.4666 154.635 25.7931 154.94 26.0384C155.249 26.2836 155.636 26.4062 156.104 26.4062ZM162.804 22.9659V27.5H161.318V19.8636H162.744V21.1065H162.839C163.015 20.7022 163.29 20.3774 163.664 20.1321C164.042 19.8868 164.518 19.7642 165.091 19.7642C165.611 19.7642 166.067 19.8736 166.458 20.0923C166.849 20.3078 167.153 20.6293 167.368 21.0568C167.584 21.4844 167.691 22.013 167.691 22.6428V27.5H166.205V22.8217C166.205 22.2682 166.061 21.8357 165.772 21.5241C165.484 21.2093 165.088 21.0518 164.584 21.0518C164.239 21.0518 163.933 21.1264 163.664 21.2756C163.399 21.4247 163.189 21.6435 163.033 21.9318C162.88 22.2169 162.804 22.5616 162.804 22.9659ZM171.907 27.669C171.423 27.669 170.986 27.5795 170.595 27.4006C170.204 27.2183 169.894 26.9548 169.665 26.6101C169.44 26.2654 169.327 25.8428 169.327 25.3423C169.327 24.9115 169.41 24.5568 169.575 24.2784C169.741 24 169.965 23.7796 170.247 23.6172C170.528 23.4548 170.843 23.3321 171.191 23.2493C171.539 23.1664 171.894 23.1035 172.255 23.0604C172.713 23.0073 173.084 22.9643 173.369 22.9311C173.654 22.8946 173.861 22.8366 173.99 22.7571C174.119 22.6776 174.184 22.5483 174.184 22.3693V22.3345C174.184 21.9003 174.061 21.5639 173.816 21.3253C173.574 21.0866 173.213 20.9673 172.732 20.9673C172.232 20.9673 171.838 21.0784 171.549 21.3004C171.264 21.5192 171.067 21.7628 170.958 22.0312L169.561 21.7131C169.726 21.2491 169.968 20.8745 170.286 20.5895C170.608 20.3011 170.977 20.0923 171.395 19.9631C171.813 19.8305 172.252 19.7642 172.713 19.7642C173.017 19.7642 173.341 19.8007 173.682 19.8736C174.027 19.9432 174.348 20.0724 174.646 20.2614C174.948 20.4503 175.195 20.7204 175.387 21.0717C175.579 21.4197 175.676 21.8722 175.676 22.429V27.5H174.224V26.456H174.164C174.068 26.6482 173.924 26.8371 173.732 27.0227C173.539 27.2083 173.293 27.3625 172.991 27.4851C172.689 27.6077 172.328 27.669 171.907 27.669ZM172.23 26.4759C172.641 26.4759 172.993 26.3946 173.284 26.2322C173.579 26.0698 173.803 25.8577 173.955 25.5959C174.111 25.3307 174.189 25.0473 174.189 24.7457V23.7614C174.136 23.8144 174.033 23.8641 173.881 23.9105C173.732 23.9536 173.561 23.9917 173.369 24.0249C173.177 24.0547 172.989 24.0829 172.807 24.1094C172.625 24.1326 172.472 24.1525 172.35 24.169C172.061 24.2055 171.798 24.2668 171.559 24.353C171.324 24.4392 171.135 24.5634 170.992 24.7259C170.853 24.8849 170.784 25.0971 170.784 25.3622C170.784 25.7301 170.919 26.0085 171.191 26.1974C171.463 26.383 171.809 26.4759 172.23 26.4759ZM179.142 17.3182V27.5H177.656V17.3182H179.142ZM185.279 22.4091C185.279 21.1629 185.444 20.0161 185.772 18.9688C186.1 17.9214 186.579 16.9553 187.208 16.0703H188.571C188.325 16.3984 188.097 16.8011 187.885 17.2784C187.672 17.7557 187.487 18.2794 187.328 18.8494C187.169 19.4162 187.044 20.0045 186.955 20.6143C186.865 21.2209 186.821 21.8191 186.821 22.4091C186.821 23.1979 186.899 23.9967 187.054 24.8054C187.21 25.6141 187.421 26.3648 187.686 27.0575C187.951 27.7502 188.246 28.3153 188.571 28.7528H187.208C186.579 27.8679 186.1 26.9018 185.772 25.8544C185.444 24.8071 185.279 23.6586 185.279 22.4091ZM195.811 19.9929C195.758 19.5223 195.539 19.1577 195.154 18.8991C194.77 18.6373 194.286 18.5064 193.703 18.5064C193.285 18.5064 192.924 18.5727 192.619 18.7053C192.314 18.8345 192.077 19.0135 191.908 19.2422C191.742 19.4676 191.659 19.7244 191.659 20.0128C191.659 20.2547 191.716 20.4635 191.828 20.6392C191.944 20.8149 192.095 20.9624 192.281 21.0817C192.47 21.1977 192.672 21.2955 192.887 21.375C193.103 21.4512 193.31 21.5142 193.509 21.5639L194.503 21.8224C194.828 21.902 195.161 22.0097 195.502 22.1456C195.844 22.2815 196.16 22.4605 196.452 22.6825C196.744 22.9046 196.979 23.1797 197.158 23.5078C197.34 23.8359 197.431 24.2287 197.431 24.6861C197.431 25.2628 197.282 25.7749 196.984 26.2223C196.689 26.6697 196.26 27.0227 195.696 27.2812C195.136 27.5398 194.458 27.669 193.663 27.669C192.901 27.669 192.241 27.5481 191.684 27.3061C191.127 27.0642 190.691 26.7211 190.377 26.277C190.062 25.8295 189.888 25.2992 189.855 24.6861H191.396C191.426 25.054 191.545 25.3606 191.754 25.6058C191.966 25.8478 192.236 26.0284 192.564 26.1477C192.896 26.2637 193.258 26.3217 193.653 26.3217C194.087 26.3217 194.473 26.2538 194.811 26.1179C195.153 25.9787 195.421 25.7865 195.617 25.5412C195.812 25.2926 195.91 25.0026 195.91 24.6712C195.91 24.3696 195.824 24.1226 195.651 23.9304C195.482 23.7382 195.252 23.5791 194.96 23.4531C194.672 23.3272 194.346 23.2161 193.981 23.12L192.778 22.7919C191.963 22.5698 191.316 22.2434 190.839 21.8125C190.365 21.3816 190.128 20.8116 190.128 20.1023C190.128 19.5156 190.287 19.0036 190.605 18.5661C190.923 18.1286 191.354 17.7888 191.898 17.5469C192.441 17.3016 193.055 17.179 193.737 17.179C194.427 17.179 195.035 17.3 195.562 17.5419C196.092 17.7839 196.51 18.117 196.815 18.5412C197.12 18.9621 197.279 19.446 197.292 19.9929H195.811ZM206.158 20.5348C206.062 20.2332 205.932 19.9631 205.77 19.7244C205.611 19.4825 205.42 19.277 205.198 19.108C204.976 18.9356 204.723 18.8047 204.438 18.7152C204.156 18.6257 203.846 18.581 203.508 18.581C202.934 18.581 202.417 18.7285 201.957 19.0234C201.496 19.3184 201.131 19.7509 200.863 20.321C200.598 20.8878 200.465 21.5821 200.465 22.4041C200.465 23.2294 200.599 23.9271 200.868 24.4972C201.136 25.0672 201.504 25.4998 201.972 25.7947C202.439 26.0897 202.971 26.2372 203.567 26.2372C204.121 26.2372 204.603 26.1245 205.014 25.8991C205.429 25.6738 205.748 25.3556 205.974 24.9446C206.202 24.5303 206.317 24.0431 206.317 23.483L206.714 23.5575H203.801V22.2898H207.803V23.4482C207.803 24.3033 207.621 25.0457 207.256 25.6754C206.895 26.3018 206.395 26.7857 205.755 27.1271C205.119 27.4685 204.389 27.6392 203.567 27.6392C202.646 27.6392 201.837 27.4271 201.141 27.0028C200.449 26.5786 199.908 25.977 199.521 25.1982C199.133 24.416 198.939 23.4879 198.939 22.4141C198.939 21.602 199.052 20.8729 199.277 20.2266C199.502 19.5803 199.819 19.0317 200.227 18.581C200.638 18.1269 201.12 17.7805 201.673 17.5419C202.23 17.3 202.838 17.179 203.498 17.179C204.048 17.179 204.56 17.2602 205.034 17.4226C205.511 17.585 205.936 17.8153 206.307 18.1136C206.681 18.4119 206.991 18.7666 207.237 19.1776C207.482 19.5852 207.647 20.0376 207.734 20.5348H206.158ZM212.493 22.4091C212.493 23.6586 212.329 24.8071 212.001 25.8544C211.672 26.9018 211.193 27.8679 210.564 28.7528H209.202C209.447 28.4247 209.675 28.022 209.888 27.5447C210.1 27.0675 210.285 26.5455 210.444 25.9787C210.604 25.4086 210.728 24.8187 210.817 24.2088C210.907 23.599 210.952 22.9991 210.952 22.4091C210.952 21.6236 210.874 20.8265 210.718 20.0178C210.562 19.209 210.352 18.4583 210.086 17.7656C209.821 17.0729 209.526 16.5078 209.202 16.0703H210.564C211.193 16.9553 211.672 17.9214 212.001 18.9688C212.329 20.0161 212.493 21.1629 212.493 22.4091Z" fill="#181D27"/>
<path d="M65.0568 46.5V37.7727H68.0057C68.6903 37.7727 69.25 37.8963 69.6847 38.1435C70.1222 38.3878 70.446 38.7188 70.6562 39.1364C70.8665 39.554 70.9716 40.0199 70.9716 40.5341C70.9716 41.0483 70.8665 41.5156 70.6562 41.9361C70.4489 42.3565 70.1278 42.6918 69.6932 42.9418C69.2585 43.1889 68.7017 43.3125 68.0227 43.3125H65.9091V42.375H67.9886C68.4574 42.375 68.8338 42.294 69.1179 42.1321C69.402 41.9702 69.608 41.7514 69.7358 41.4759C69.8665 41.1974 69.9318 40.8835 69.9318 40.5341C69.9318 40.1847 69.8665 39.8722 69.7358 39.5966C69.608 39.321 69.4006 39.1051 69.1136 38.9489C68.8267 38.7898 68.446 38.7102 67.9716 38.7102H66.1136V46.5H65.0568ZM72.5376 46.5V39.9545H73.5092V40.9432H73.5774C73.6967 40.6193 73.9126 40.3565 74.2251 40.1548C74.5376 39.9531 74.8899 39.8523 75.282 39.8523C75.3558 39.8523 75.4482 39.8537 75.5589 39.8565C75.6697 39.8594 75.7536 39.8636 75.8104 39.8693V40.892C75.7763 40.8835 75.6982 40.8707 75.576 40.8537C75.4567 40.8338 75.3303 40.8239 75.1967 40.8239C74.8786 40.8239 74.5945 40.8906 74.3445 41.0241C74.0973 41.1548 73.9013 41.3366 73.7564 41.5696C73.6143 41.7997 73.5433 42.0625 73.5433 42.358V46.5H72.5376ZM77.0025 46.5V39.9545H78.0082V46.5H77.0025ZM77.5138 38.8636C77.3178 38.8636 77.1488 38.7969 77.0067 38.6634C76.8675 38.5298 76.7979 38.3693 76.7979 38.1818C76.7979 37.9943 76.8675 37.8338 77.0067 37.7003C77.1488 37.5668 77.3178 37.5 77.5138 37.5C77.7099 37.5 77.8775 37.5668 78.0167 37.7003C78.1587 37.8338 78.2298 37.9943 78.2298 38.1818C78.2298 38.3693 78.1587 38.5298 78.0167 38.6634C77.8775 38.7969 77.7099 38.8636 77.5138 38.8636ZM79.8501 46.5V39.9545H80.8217V40.9773H80.907C81.0433 40.6278 81.2635 40.3565 81.5675 40.1634C81.8714 39.9673 82.2365 39.8693 82.6626 39.8693C83.0945 39.8693 83.4538 39.9673 83.7408 40.1634C84.0305 40.3565 84.2564 40.6278 84.4183 40.9773H84.4865C84.6541 40.6392 84.9055 40.3707 85.2408 40.1719C85.576 39.9702 85.978 39.8693 86.4467 39.8693C87.032 39.8693 87.5107 40.0526 87.8828 40.419C88.255 40.7827 88.4411 41.3494 88.4411 42.1193V46.5H87.4354V42.1193C87.4354 41.6364 87.3033 41.2912 87.0391 41.0838C86.7749 40.8764 86.4638 40.7727 86.1058 40.7727C85.6456 40.7727 85.2891 40.9119 85.0362 41.1903C84.7834 41.4659 84.657 41.8153 84.657 42.2386V46.5H83.6342V42.017C83.6342 41.6449 83.5135 41.3452 83.272 41.1179C83.0305 40.8878 82.7195 40.7727 82.3388 40.7727C82.0774 40.7727 81.8331 40.8423 81.6058 40.9815C81.3814 41.1207 81.1996 41.3139 81.0604 41.5611C80.924 41.8054 80.8558 42.0881 80.8558 42.4091V46.5H79.8501ZM93.0241 46.6364C92.3935 46.6364 91.8494 46.4972 91.392 46.2188C90.9375 45.9375 90.5866 45.5455 90.3395 45.0426C90.0952 44.5369 89.973 43.9489 89.973 43.2784C89.973 42.608 90.0952 42.017 90.3395 41.5057C90.5866 40.9915 90.9304 40.5909 91.3707 40.304C91.8139 40.0142 92.331 39.8693 92.9219 39.8693C93.2628 39.8693 93.5994 39.9261 93.9318 40.0398C94.2642 40.1534 94.5668 40.3381 94.8395 40.5938C95.1122 40.8466 95.3295 41.1818 95.4915 41.5994C95.6534 42.017 95.7344 42.5312 95.7344 43.142V43.5682H90.6889V42.6989H94.7116C94.7116 42.3295 94.6378 42 94.4901 41.7102C94.3452 41.4205 94.1378 41.1918 93.8679 41.0241C93.6009 40.8565 93.2855 40.7727 92.9219 40.7727C92.5213 40.7727 92.1747 40.8722 91.8821 41.071C91.5923 41.267 91.3693 41.5227 91.2131 41.8381C91.0568 42.1534 90.9787 42.4915 90.9787 42.8523V43.4318C90.9787 43.9261 91.0639 44.3452 91.2344 44.6889C91.4077 45.0298 91.6477 45.2898 91.9545 45.4688C92.2614 45.6449 92.6179 45.733 93.0241 45.733C93.2884 45.733 93.527 45.696 93.7401 45.6222C93.956 45.5455 94.142 45.4318 94.2983 45.2812C94.4545 45.1278 94.5753 44.9375 94.6605 44.7102L95.6321 44.983C95.5298 45.3125 95.358 45.6023 95.1165 45.8523C94.875 46.0994 94.5767 46.2926 94.2216 46.4318C93.8665 46.5682 93.4673 46.6364 93.0241 46.6364ZM97.2642 46.5V39.9545H98.2699V46.5H97.2642ZM97.7756 38.8636C97.5795 38.8636 97.4105 38.7969 97.2685 38.6634C97.1293 38.5298 97.0597 38.3693 97.0597 38.1818C97.0597 37.9943 97.1293 37.8338 97.2685 37.7003C97.4105 37.5668 97.5795 37.5 97.7756 37.5C97.9716 37.5 98.1392 37.5668 98.2784 37.7003C98.4205 37.8338 98.4915 37.9943 98.4915 38.1818C98.4915 38.3693 98.4205 38.5298 98.2784 38.6634C98.1392 38.7969 97.9716 38.8636 97.7756 38.8636ZM100.112 46.5V39.9545H101.083V40.9432H101.152C101.271 40.6193 101.487 40.3565 101.799 40.1548C102.112 39.9531 102.464 39.8523 102.856 39.8523C102.93 39.8523 103.022 39.8537 103.133 39.8565C103.244 39.8594 103.328 39.8636 103.385 39.8693V40.892C103.35 40.8835 103.272 40.8707 103.15 40.8537C103.031 40.8338 102.904 40.8239 102.771 40.8239C102.453 40.8239 102.169 40.8906 101.919 41.0241C101.672 41.1548 101.475 41.3366 101.331 41.5696C101.189 41.7997 101.118 42.0625 101.118 42.358V46.5H100.112ZM107.037 46.6364C106.446 46.6364 105.927 46.4957 105.481 46.2145C105.038 45.9332 104.691 45.5398 104.441 45.0341C104.194 44.5284 104.071 43.9375 104.071 43.2614C104.071 42.5795 104.194 41.9844 104.441 41.4759C104.691 40.9673 105.038 40.5724 105.481 40.2912C105.927 40.0099 106.446 39.8693 107.037 39.8693C107.627 39.8693 108.145 40.0099 108.588 40.2912C109.034 40.5724 109.38 40.9673 109.627 41.4759C109.877 41.9844 110.002 42.5795 110.002 43.2614C110.002 43.9375 109.877 44.5284 109.627 45.0341C109.38 45.5398 109.034 45.9332 108.588 46.2145C108.145 46.4957 107.627 46.6364 107.037 46.6364ZM107.037 45.733C107.485 45.733 107.855 45.6179 108.145 45.3878C108.434 45.1577 108.649 44.8551 108.788 44.4801C108.927 44.1051 108.997 43.6989 108.997 43.2614C108.997 42.8239 108.927 42.4162 108.788 42.0384C108.649 41.6605 108.434 41.3551 108.145 41.1222C107.855 40.8892 107.485 40.7727 107.037 40.7727C106.588 40.7727 106.218 40.8892 105.929 41.1222C105.639 41.3551 105.424 41.6605 105.285 42.0384C105.146 42.4162 105.076 42.8239 105.076 43.2614C105.076 43.6989 105.146 44.1051 105.285 44.4801C105.424 44.8551 105.639 45.1577 105.929 45.3878C106.218 45.6179 106.588 45.733 107.037 45.733ZM114.572 38.7102V37.7727H121.117V38.7102H118.373V46.5H117.316V38.7102H114.572ZM121.932 46.5V39.9545H122.904V40.9432H122.972C123.091 40.6193 123.307 40.3565 123.62 40.1548C123.932 39.9531 124.284 39.8523 124.676 39.8523C124.75 39.8523 124.843 39.8537 124.953 39.8565C125.064 39.8594 125.148 39.8636 125.205 39.8693V40.892C125.171 40.8835 125.093 40.8707 124.971 40.8537C124.851 40.8338 124.725 40.8239 124.591 40.8239C124.273 40.8239 123.989 40.8906 123.739 41.0241C123.492 41.1548 123.296 41.3366 123.151 41.5696C123.009 41.7997 122.938 42.0625 122.938 42.358V46.5H121.932ZM126.397 46.5V39.9545H127.403V46.5H126.397ZM126.908 38.8636C126.712 38.8636 126.543 38.7969 126.401 38.6634C126.262 38.5298 126.192 38.3693 126.192 38.1818C126.192 37.9943 126.262 37.8338 126.401 37.7003C126.543 37.5668 126.712 37.5 126.908 37.5C127.104 37.5 127.272 37.5668 127.411 37.7003C127.553 37.8338 127.624 37.9943 127.624 38.1818C127.624 38.3693 127.553 38.5298 127.411 38.6634C127.272 38.7969 127.104 38.8636 126.908 38.8636ZM129.245 46.5V39.9545H130.216V40.9773H130.301C130.438 40.6278 130.658 40.3565 130.962 40.1634C131.266 39.9673 131.631 39.8693 132.057 39.8693C132.489 39.8693 132.848 39.9673 133.135 40.1634C133.425 40.3565 133.651 40.6278 133.813 40.9773H133.881C134.049 40.6392 134.3 40.3707 134.635 40.1719C134.971 39.9702 135.373 39.8693 135.841 39.8693C136.426 39.8693 136.905 40.0526 137.277 40.419C137.65 40.7827 137.836 41.3494 137.836 42.1193V46.5H136.83V42.1193C136.83 41.6364 136.698 41.2912 136.434 41.0838C136.169 40.8764 135.858 40.7727 135.5 40.7727C135.04 40.7727 134.684 40.9119 134.431 41.1903C134.178 41.4659 134.051 41.8153 134.051 42.2386V46.5H133.029V42.017C133.029 41.6449 132.908 41.3452 132.667 41.1179C132.425 40.8878 132.114 40.7727 131.733 40.7727C131.472 40.7727 131.228 40.8423 131 40.9815C130.776 41.1207 130.594 41.3139 130.455 41.5611C130.319 41.8054 130.25 42.0881 130.25 42.4091V46.5H129.245ZM142.419 46.6364C141.788 46.6364 141.244 46.4972 140.787 46.2188C140.332 45.9375 139.981 45.5455 139.734 45.0426C139.49 44.5369 139.368 43.9489 139.368 43.2784C139.368 42.608 139.49 42.017 139.734 41.5057C139.981 40.9915 140.325 40.5909 140.765 40.304C141.208 40.0142 141.725 39.8693 142.316 39.8693C142.657 39.8693 142.994 39.9261 143.326 40.0398C143.659 40.1534 143.961 40.3381 144.234 40.5938C144.507 40.8466 144.724 41.1818 144.886 41.5994C145.048 42.017 145.129 42.5312 145.129 43.142V43.5682H140.083V42.6989H144.106C144.106 42.3295 144.032 42 143.885 41.7102C143.74 41.4205 143.532 41.1918 143.262 41.0241C142.995 40.8565 142.68 40.7727 142.316 40.7727C141.916 40.7727 141.569 40.8722 141.277 41.071C140.987 41.267 140.764 41.5227 140.608 41.8381C140.451 42.1534 140.373 42.4915 140.373 42.8523V43.4318C140.373 43.9261 140.458 44.3452 140.629 44.6889C140.802 45.0298 141.042 45.2898 141.349 45.4688C141.656 45.6449 142.012 45.733 142.419 45.733C142.683 45.733 142.922 45.696 143.135 45.6222C143.35 45.5455 143.537 45.4318 143.693 45.2812C143.849 45.1278 143.97 44.9375 144.055 44.7102L145.027 44.983C144.924 45.3125 144.752 45.6023 144.511 45.8523C144.27 46.0994 143.971 46.2926 143.616 46.4318C143.261 46.5682 142.862 46.6364 142.419 46.6364ZM151.295 41.4205L150.392 41.6761C150.335 41.5256 150.251 41.3793 150.14 41.2372C150.032 41.0923 149.885 40.973 149.697 40.8793C149.51 40.7855 149.27 40.7386 148.977 40.7386C148.576 40.7386 148.243 40.831 147.975 41.0156C147.711 41.1974 147.579 41.429 147.579 41.7102C147.579 41.9602 147.67 42.1577 147.852 42.3026C148.034 42.4474 148.318 42.5682 148.704 42.6648L149.676 42.9034C150.261 43.0455 150.697 43.2628 150.984 43.5554C151.271 43.8452 151.414 44.2187 151.414 44.6761C151.414 45.0511 151.306 45.3864 151.091 45.6818C150.877 45.9773 150.579 46.2102 150.196 46.3807C149.812 46.5511 149.366 46.6364 148.858 46.6364C148.19 46.6364 147.637 46.4915 147.2 46.2017C146.762 45.9119 146.485 45.4886 146.369 44.9318L147.324 44.6932C147.414 45.0455 147.586 45.3097 147.839 45.4858C148.095 45.6619 148.429 45.75 148.841 45.75C149.309 45.75 149.681 45.6506 149.957 45.4517C150.235 45.25 150.375 45.0085 150.375 44.7273C150.375 44.5 150.295 44.3097 150.136 44.1562C149.977 44 149.733 43.8835 149.403 43.8068L148.312 43.5511C147.713 43.4091 147.272 43.1889 146.991 42.8906C146.713 42.5895 146.574 42.2131 146.574 41.7614C146.574 41.392 146.677 41.0653 146.885 40.7812C147.095 40.4972 147.38 40.2741 147.741 40.1122C148.105 39.9503 148.517 39.8693 148.977 39.8693C149.625 39.8693 150.133 40.0114 150.502 40.2955C150.875 40.5795 151.139 40.9545 151.295 41.4205ZM155.775 39.9545V40.8068H152.383V39.9545H155.775ZM153.371 38.3864H154.377V44.625C154.377 44.9091 154.418 45.1222 154.501 45.2642C154.586 45.4034 154.694 45.4972 154.825 45.5455C154.958 45.5909 155.099 45.6136 155.246 45.6136C155.357 45.6136 155.448 45.608 155.519 45.5966C155.59 45.5824 155.647 45.571 155.69 45.5625L155.894 46.4659C155.826 46.4915 155.731 46.517 155.609 46.5426C155.487 46.571 155.332 46.5852 155.144 46.5852C154.86 46.5852 154.582 46.5241 154.309 46.402C154.039 46.2798 153.815 46.0938 153.636 45.8438C153.46 45.5938 153.371 45.2784 153.371 44.8977V38.3864ZM157.288 46.5V39.9545H158.259V40.9432H158.327C158.447 40.6193 158.663 40.3565 158.975 40.1548C159.288 39.9531 159.64 39.8523 160.032 39.8523C160.106 39.8523 160.198 39.8537 160.309 39.8565C160.42 39.8594 160.504 39.8636 160.56 39.8693V40.892C160.526 40.8835 160.448 40.8707 160.326 40.8537C160.207 40.8338 160.08 40.8239 159.947 40.8239C159.629 40.8239 159.344 40.8906 159.094 41.0241C158.847 41.1548 158.651 41.3366 158.506 41.5696C158.364 41.7997 158.293 42.0625 158.293 42.358V46.5H157.288ZM164.298 46.6364C163.667 46.6364 163.123 46.4972 162.665 46.2188C162.211 45.9375 161.86 45.5455 161.613 45.0426C161.369 44.5369 161.246 43.9489 161.246 43.2784C161.246 42.608 161.369 42.017 161.613 41.5057C161.86 40.9915 162.204 40.5909 162.644 40.304C163.087 40.0142 163.604 39.8693 164.195 39.8693C164.536 39.8693 164.873 39.9261 165.205 40.0398C165.538 40.1534 165.84 40.3381 166.113 40.5938C166.386 40.8466 166.603 41.1818 166.765 41.5994C166.927 42.017 167.008 42.5312 167.008 43.142V43.5682H161.962V42.6989H165.985C165.985 42.3295 165.911 42 165.763 41.7102C165.619 41.4205 165.411 41.1918 165.141 41.0241C164.874 40.8565 164.559 40.7727 164.195 40.7727C163.795 40.7727 163.448 40.8722 163.156 41.071C162.866 41.267 162.643 41.5227 162.487 41.8381C162.33 42.1534 162.252 42.4915 162.252 42.8523V43.4318C162.252 43.9261 162.337 44.3452 162.508 44.6889C162.681 45.0298 162.921 45.2898 163.228 45.4688C163.535 45.6449 163.891 45.733 164.298 45.733C164.562 45.733 164.8 45.696 165.013 45.6222C165.229 45.5455 165.415 45.4318 165.572 45.2812C165.728 45.1278 165.849 44.9375 165.934 44.7102L166.906 44.983C166.803 45.3125 166.631 45.6023 166.39 45.8523C166.148 46.0994 165.85 46.2926 165.495 46.4318C165.14 46.5682 164.741 46.6364 164.298 46.6364Z" fill="#535862"/>
<path d="M237 27.8C237 26.1198 237 25.2798 237.327 24.638C237.615 24.0735 238.074 23.6146 238.638 23.327C239.28 23 240.12 23 241.8 23H246.2C247.88 23 248.72 23 249.362 23.327C249.926 23.6146 250.385 24.0735 250.673 24.638C251 25.2798 251 26.1198 251 27.8V41L244 37L237 41V27.8Z" stroke="#35B48B" stroke-width="2" stroke-linecap="round" stroke-linejoin="round"/>
<path fill-rule="evenodd" clip-rule="evenodd" d="M275.993 25.1358C273.994 22.7984 270.66 22.1696 268.155 24.31C265.65 26.4504 265.297 30.029 267.264 32.5604C268.9 34.6651 273.85 39.1041 275.472 40.5408C275.654 40.7016 275.744 40.7819 275.85 40.8135C275.943 40.8411 276.044 40.8411 276.136 40.8135C276.242 40.7819 276.333 40.7016 276.514 40.5408C278.137 39.1041 283.086 34.6651 284.722 32.5604C286.689 30.029 286.38 26.4279 283.832 24.31C281.283 22.1922 277.993 22.7984 275.993 25.1358Z" stroke="#717680" stroke-width="2" stroke-linecap="round" stroke-linejoin="round"/>
<path d="M316.791 32.6074C317.035 32.3981 317.158 32.2935 317.202 32.169C317.242 32.0598 317.242 31.9402 317.202 31.831C317.158 31.7065 317.035 31.6018 316.791 31.3926L308.321 24.132C307.9 23.7718 307.69 23.5917 307.512 23.5873C307.358 23.5834 307.21 23.6513 307.112 23.7712C307 23.9092 307 24.1859 307 24.7394V29.0346C304.865 29.4081 302.912 30.4897 301.46 32.1139C299.877 33.8845 299.001 36.1759 299 38.551V39.1629C300.049 37.8989 301.36 36.8765 302.841 36.1659C304.147 35.5394 305.558 35.1683 307 35.0705V39.2606C307 39.8141 307 40.0908 307.112 40.2288C307.21 40.3486 307.358 40.4166 307.512 40.4127C307.69 40.4083 307.9 40.2282 308.321 39.868L316.791 32.6074Z" stroke="#717680" stroke-width="2" stroke-linecap="round" stroke-linejoin="round"/>
</svg>
